<svg xmlns="http://www.w3.org/2000/svg" viewBox="0 0 100 100">
  <defs>
    <radialGradient id="ghostGrad" cx="42%" cy="52%" r="58%">
      <stop offset="0%"   stop-color="#ffb3c6"/>
      <stop offset="28%"  stop-color="#ffd6e0"/>
      <stop offset="52%"  stop-color="#b8f0d8"/>
      <stop offset="76%"  stop-color="#a8e6ff"/>
      <stop offset="100%" stop-color="#c8f0ff"/>
    </radialGradient>
  </defs>

  <!-- 배경: 다크 -->
  <rect width="100" height="100" rx="22" fill="#1a1714"/>

  <!-- 유령 몸체 흰색 베이스 (테두리 효과) -->
  <path d="M50 15 C33 15 21 28 21 45 L21 72 C21 72 26.5 66.5 32.5 72.5 C38.5 78.5 44 72 50 72 C56 72 61.5 78.5 67.5 72.5 C73.5 66.5 79 72 79 72 L79 45 C79 28 67 15 50 15Z"
    fill="white"/>

  <!-- 레인보우 그라디언트 오버레이 -->
  <path d="M50 15 C33 15 21 28 21 45 L21 72 C21 72 26.5 66.5 32.5 72.5 C38.5 78.5 44 72 50 72 C56 72 61.5 78.5 67.5 72.5 C73.5 66.5 79 72 79 72 L79 45 C79 28 67 15 50 15Z"
    fill="url(#ghostGrad)" opacity="0.82"/>

  <!-- 눈 -->
  <ellipse cx="40" cy="47" rx="5" ry="6.5" fill="#1a1714"/>
  <ellipse cx="60" cy="47" rx="5" ry="6.5" fill="#1a1714"/>

  <!-- 4각 별 -->
  <path d="M77 13 L79.8 21.2 L88 24 L79.8 26.8 L77 35 L74.2 26.8 L66 24 L74.2 21.2Z" fill="white" opacity="0.95"/>
</svg>
